# xmcd
#
# Track frame offsets:
#	150
#	16435
#	29150
#	49155
#	68600
#	89307
#	110350
#	124807
#	140362
#	152295
#	178782
#	187332
#	206350
#	221200
#
# Disc length: 3113 seconds
#
# Revision: 1
# Processed by: cddbd v1.4PL0 Copyright (c) Steve Scherf et al.
# Submitted via: audiograbber 1.81.03
#
DISCID=cb0c270e
DTITLE=Glenn Kaiser - Ripley County Blues
DYEAR=2002
DGENRE=
TTITLE0=Nick of Time
TTITLE1=Blue Rain Fall
TTITLE2=Do Lord
TTITLE3=I Got My Eyes on You
TTITLE4=Ripley County Blues
TTITLE5=Keep It To Yourself?
TTITLE6=Workday Blues
TTITLE7=Deliver Me
TTITLE8=Playing With Fire
TTITLE9=Runaway Train
TTITLE10=Promises He'll Keep
TTITLE11=This Child
TTITLE12=Mystery
TTITLE13=Take Your Stand
EXTD=
EXTT0=
EXTT1=
EXTT2=
EXTT3=
EXTT4=
EXTT5=
EXTT6=
EXTT7=
EXTT8=
EXTT9=
EXTT10=
EXTT11=
EXTT12=
EXTT13=
PLAYORDER=
